<svg width="100" height="100" viewBox="0 0 100 100" fill="none" xmlns="http://www.w3.org/2000/svg">
<path d="M46.1733 12.5725C47.324 8.79215 52.676 8.79215 53.8267 12.5725L60.2697 33.7409C61.1432 36.6108 63.3892 38.8568 66.2591 39.7303L87.4275 46.1733C91.2078 47.324 91.2079 52.676 87.4275 53.8267L63.7081 61.0461C62.4326 61.4343 61.4343 62.4326 61.0461 63.7081L53.8267 87.4275C52.676 91.2078 47.324 91.2079 46.1733 87.4275L38.9539 63.7081C38.5657 62.4326 37.5674 61.4343 36.2919 61.0461L12.5725 53.8267C8.79215 52.676 8.79215 47.324 12.5725 46.1733L36.2919 38.9539C37.5674 38.5657 38.5657 37.5674 38.9539 36.2919L46.1733 12.5725Z" fill="black"/>
<path d="M14.5867 12.2863C15.162 10.3961 17.838 10.3961 18.4133 12.2863L19.729 16.609C20.1173 17.8845 21.1155 18.8827 22.391 19.271L26.7137 20.5867C28.6039 21.162 28.6039 23.838 26.7137 24.4133L22.391 25.729C21.1155 26.1173 20.1173 27.1155 19.729 28.391L18.4133 32.7137C17.838 34.6039 15.162 34.6039 14.5867 32.7137L13.271 28.391C12.8827 27.1155 11.8845 26.1173 10.609 25.729L6.28626 24.4133C4.39607 23.838 4.39607 21.162 6.28626 20.5867L10.609 19.271C11.8845 18.8827 12.8827 17.8845 13.271 16.609L14.5867 12.2863Z" fill="black"/>
</svg>
