<svg width="180" height="19" viewBox="0 0 180 19" fill="none" xmlns="http://www.w3.org/2000/svg">
<path d="M18.7502 0H0V18.5626H18.7502V0Z" fill="#00B67A"/>
<path d="M39.0637 0H20.3135V18.5626H39.0637V0Z" fill="#00B67A"/>
<path d="M59.3762 0H40.626V18.5626H59.3762V0Z" fill="#00B67A"/>
<path d="M79.6887 0H60.9385V18.5626H79.6887V0Z" fill="#00B67A"/>
<path d="M99.9991 0H90.624V18.5626H99.9991V0Z" fill="#DCDCE6"/>
<path d="M90.6241 0H81.249V18.5626H90.6241V0Z" fill="#00B67A"/>
<path d="M9.37508 12.5103L12.2267 11.7949L13.4181 15.43L9.37508 12.5103ZM15.9377 7.81165H10.9181L9.37508 3.13232L7.83209 7.81165H2.8125L6.87505 10.7121L5.33206 15.3914L9.39461 12.491L11.8946 10.7121L15.9377 7.81165Z" fill="white"/>
<path d="M29.6876 12.5103L32.5392 11.7949L33.7306 15.43L29.6876 12.5103ZM36.2502 7.81165H31.2306L29.6876 3.13232L28.1446 7.81165H23.125L27.1876 10.7121L25.6446 15.3914L29.7071 12.491L32.2071 10.7121L36.2502 7.81165Z" fill="white"/>
<path d="M50.0011 12.5103L52.8527 11.7949L54.0441 15.43L50.0011 12.5103ZM56.5636 7.81165H51.544L50.0011 3.13232L48.4581 7.81165H43.4385L47.501 10.7121L45.958 15.3914L50.0206 12.491L52.5206 10.7121L56.5636 7.81165Z" fill="white"/>
<path d="M70.3136 12.5103L73.1652 11.7949L74.3566 15.43L70.3136 12.5103ZM76.8761 7.81165H71.8565L70.3136 3.13232L68.7706 7.81165H63.751L67.8135 10.7121L66.2705 15.3914L70.3331 12.491L72.8331 10.7121L76.8761 7.81165Z" fill="white"/>
<path d="M90.6251 12.5103L93.4767 11.7949L94.6681 15.43L90.6251 12.5103ZM97.1877 7.81165H92.1681L90.6251 3.13232L89.0821 7.81165H84.0625L88.1251 10.7121L86.5821 15.3914L90.6446 12.491L93.1446 10.7121L97.1877 7.81165Z" fill="white"/>
<path d="M126.75 6.56348H133.962V7.90328H131.126V15.4533H129.563V7.90328H126.738L126.75 6.56348ZM133.658 9.0178H134.99V10.263H135.014C135.065 10.0794 135.15 9.90674 135.264 9.75365C135.386 9.58092 135.534 9.42877 135.704 9.30303C135.874 9.16073 136.067 9.04849 136.275 8.9711C136.474 8.88705 136.688 8.84267 136.905 8.84046C137.071 8.84046 137.19 8.85242 137.25 8.85242C137.312 8.86626 137.376 8.87431 137.44 8.87641V10.2402C137.338 10.2176 137.235 10.2015 137.131 10.1923C137.028 10.1784 136.925 10.1704 136.822 10.1683C136.588 10.1674 136.357 10.216 136.144 10.3109C135.931 10.4096 135.741 10.5507 135.585 10.7256C135.419 10.9309 135.29 11.1637 135.205 11.4135C135.105 11.7194 135.057 12.0397 135.062 12.3614V15.4198H133.635L133.658 9.0178ZM143.979 15.4545H142.576V14.5533H142.552C142.37 14.8831 142.098 15.1544 141.767 15.3359C141.447 15.5277 141.082 15.6299 140.709 15.6319C140.375 15.6643 140.037 15.625 139.72 15.5167C139.402 15.4084 139.111 15.2336 138.866 15.0039C138.446 14.4643 138.243 13.788 138.296 13.1068V9.01663H139.72V12.9642C139.673 13.3914 139.792 13.8204 140.053 14.1626C140.17 14.285 140.313 14.3806 140.471 14.4427C140.629 14.5048 140.799 14.5319 140.969 14.5222C141.226 14.53 141.482 14.4813 141.718 14.3795C141.908 14.2976 142.075 14.1715 142.206 14.0116C142.337 13.848 142.43 13.6578 142.48 13.4544C142.539 13.2258 142.567 12.9904 142.563 12.7545V9.02022H143.989V15.4569L143.979 15.4545ZM146.404 13.3921C146.411 13.5654 146.457 13.7349 146.541 13.8871C146.624 14.0394 146.742 14.1702 146.885 14.2693C147.185 14.4416 147.526 14.5279 147.872 14.5186C148.023 14.517 148.174 14.505 148.324 14.4826C148.488 14.4628 148.65 14.4225 148.805 14.3628C148.949 14.3109 149.077 14.2205 149.174 14.1015C149.273 13.9779 149.32 13.8205 149.305 13.6629C149.303 13.5782 149.284 13.4947 149.249 13.4173C149.215 13.34 149.165 13.2702 149.103 13.2123C148.959 13.0915 148.797 12.9955 148.622 12.9282C148.405 12.8507 148.183 12.7914 147.956 12.7509C147.706 12.703 147.457 12.6442 147.195 12.5855C146.933 12.5268 146.672 12.4549 146.422 12.3722C146.182 12.2961 145.957 12.1798 145.756 12.0283C145.559 11.8871 145.4 11.6998 145.292 11.483C145.166 11.2291 145.105 10.9478 145.114 10.6645C145.101 10.351 145.193 10.0421 145.377 9.78722C145.547 9.5496 145.771 9.35473 146.03 9.21797C146.306 9.06973 146.603 8.96576 146.91 8.90995C147.212 8.85461 147.519 8.82693 147.826 8.82726C148.146 8.82566 148.465 8.86148 148.777 8.93394C149.07 8.99661 149.348 9.11325 149.598 9.27787C149.843 9.43413 150.049 9.64498 150.199 9.89387C150.37 10.1708 150.476 10.4832 150.508 10.8071H149.022C149.005 10.664 148.954 10.5271 148.873 10.4075C148.792 10.288 148.685 10.1891 148.558 10.1192C148.295 9.99719 148.007 9.93656 147.717 9.94181C147.622 9.94181 147.491 9.95378 147.356 9.96577C147.223 9.9848 147.092 10.0165 146.964 10.0605C146.849 10.1063 146.744 10.1748 146.655 10.2618C146.612 10.3077 146.578 10.3617 146.556 10.4207C146.533 10.4798 146.522 10.5426 146.524 10.6057C146.521 10.6837 146.535 10.7615 146.566 10.8332C146.597 10.905 146.643 10.969 146.702 11.0204C146.846 11.1379 147.008 11.2299 147.183 11.2924C147.4 11.37 147.622 11.4293 147.849 11.4698C148.099 11.5177 148.36 11.5764 148.622 11.6352C148.884 11.6939 149.133 11.7658 149.383 11.8485C149.624 11.922 149.849 12.0386 150.049 12.1924C150.245 12.3343 150.409 12.5161 150.529 12.7257C150.655 12.9714 150.716 13.2447 150.707 13.5203C150.719 13.863 150.627 14.2013 150.445 14.4922C150.269 14.7553 150.038 14.9776 149.767 15.1441C149.479 15.312 149.166 15.436 148.841 15.512C148.509 15.5863 148.17 15.6264 147.83 15.6319C147.448 15.635 147.068 15.587 146.7 15.4893C146.377 15.4044 146.071 15.2641 145.796 15.0746C145.546 14.8907 145.342 14.6511 145.201 14.3747C145.046 14.0652 144.964 13.7247 144.961 13.3788H146.403V13.3908L146.404 13.3921ZM151.1 9.0178H152.182V7.074H153.609V9.00584H154.893V10.0605H153.609V13.4987C153.61 13.6293 153.618 13.7597 153.633 13.8894C153.645 13.9842 153.673 14.0763 153.716 14.1614C153.766 14.2347 153.836 14.2921 153.918 14.3268C154.04 14.3693 154.169 14.3892 154.298 14.3855C154.397 14.3874 154.496 14.3835 154.595 14.3736C154.694 14.3634 154.794 14.3473 154.892 14.3256V15.4281C154.736 15.4521 154.583 15.4641 154.428 15.4761C154.274 15.4962 154.119 15.5043 153.964 15.5001C153.659 15.5094 153.354 15.4735 153.06 15.3934C152.859 15.3351 152.676 15.2295 152.525 15.0854C152.394 14.9416 152.304 14.7659 152.263 14.5761C152.214 14.3421 152.186 14.1043 152.18 13.8654V10.0724H151.098V9.0178H151.1ZM155.892 9.0178H157.235V9.89507H157.26C157.438 9.54049 157.731 9.25629 158.091 9.08853C158.456 8.91986 158.854 8.83468 159.256 8.83925C159.715 8.82455 160.171 8.91773 160.588 9.11128C160.956 9.27694 161.278 9.52901 161.527 9.84592C161.785 10.1682 161.975 10.5392 162.086 10.9365C162.331 11.7793 162.339 12.6731 162.11 13.5203C162.003 13.9064 161.83 14.2712 161.599 14.5988C161.371 14.9108 161.074 15.1663 160.731 15.3455C160.349 15.5419 159.924 15.6396 159.494 15.6295C159.287 15.6275 159.08 15.6079 158.876 15.5708C158.672 15.5353 158.472 15.4757 158.281 15.3934C158.092 15.3124 157.916 15.2047 157.758 15.0734C157.599 14.9469 157.463 14.7946 157.354 14.6228H157.33V17.8358H155.904V9.01663L155.892 9.0178ZM160.874 12.2428C160.875 11.9588 160.835 11.6761 160.754 11.4039C160.685 11.1448 160.568 10.9009 160.409 10.6848C160.259 10.4794 160.068 10.3062 159.85 10.1755C159.614 10.0451 159.347 9.97972 159.077 9.98614C158.818 9.96966 158.558 10.0173 158.322 10.1247C158.085 10.2322 157.879 10.3962 157.721 10.6021C157.4 11.0946 157.242 11.6751 157.269 12.2619C157.264 12.5666 157.305 12.8704 157.389 13.1631C157.461 13.4221 157.583 13.6642 157.75 13.875C157.902 14.075 158.097 14.2388 158.321 14.3544C158.56 14.4767 158.825 14.5377 159.094 14.5317C159.381 14.5401 159.664 14.4705 159.915 14.3304C160.133 14.1992 160.323 14.0261 160.474 13.8211C160.621 13.603 160.726 13.359 160.783 13.102C160.844 12.8193 160.875 12.5308 160.875 12.2415L160.874 12.2428ZM163.382 6.56465H164.809V7.90449H163.382V6.56465ZM163.382 9.01901H164.809V15.4557H163.382V9.01901ZM166.081 6.56465H167.508V15.4557H166.081V6.56465ZM171.859 15.6331C171.386 15.6426 170.917 15.5536 170.48 15.3718C170.096 15.209 169.748 14.9711 169.457 14.672C169.175 14.3596 168.961 13.9924 168.828 13.5934C168.677 13.1543 168.601 12.6935 168.602 12.2296C168.595 11.7691 168.672 11.3112 168.828 10.8777C168.963 10.48 169.177 10.1133 169.457 9.79918C169.743 9.49389 170.092 9.25496 170.48 9.09932C170.918 8.92347 171.387 8.8351 171.859 8.83925C172.332 8.82936 172.801 8.91795 173.238 9.09932C173.624 9.25797 173.973 9.49648 174.261 9.79918C174.543 10.1115 174.757 10.4787 174.89 10.8777C175.041 11.3127 175.117 11.7696 175.116 12.2296C175.124 12.694 175.047 13.156 174.89 13.5934C174.75 13.989 174.536 14.3549 174.261 14.672C173.975 14.9773 173.626 15.2162 173.238 15.3718C172.8 15.5487 172.331 15.6371 171.859 15.6319V15.6331ZM171.859 14.5066C172.146 14.5119 172.429 14.4425 172.68 14.3052C172.908 14.177 173.103 13.9987 173.251 13.7839C173.404 13.5659 173.517 13.3224 173.584 13.0649C173.727 12.5248 173.727 11.9571 173.584 11.417C173.519 11.1587 173.406 10.9147 173.251 10.698C173.099 10.4894 172.905 10.3157 172.68 10.1887C172.428 10.053 172.145 9.98371 171.859 9.98735C171.573 9.98218 171.29 10.0516 171.039 10.1887C170.815 10.3161 170.62 10.4897 170.468 10.698C170.313 10.9148 170.2 11.1587 170.135 11.417C169.993 11.9571 169.993 12.5248 170.135 13.0649C170.2 13.3232 170.313 13.5672 170.468 13.7839C170.619 13.996 170.814 14.1737 171.039 14.3052C171.289 14.4457 171.573 14.5149 171.859 14.5054V14.5066ZM175.544 9.0178H176.626V7.074H178.053V9.00584H179.337V10.0605H178.053V13.4987C178.054 13.6293 178.062 13.7597 178.077 13.8894C178.089 13.9842 178.117 14.0762 178.16 14.1614C178.21 14.2347 178.28 14.2921 178.362 14.3268C178.484 14.3694 178.613 14.3893 178.743 14.3855C178.842 14.3874 178.941 14.3835 179.04 14.3736C179.14 14.3634 179.239 14.3473 179.337 14.3256V15.4281C179.182 15.4521 179.028 15.4641 178.873 15.4761C178.719 15.4962 178.564 15.5042 178.409 15.5001C178.104 15.5094 177.799 15.4735 177.505 15.3934C177.304 15.3352 177.121 15.2295 176.97 15.0854C176.839 14.9416 176.749 14.7659 176.708 14.5761C176.659 14.3421 176.632 14.1043 176.625 13.8654V10.0724H175.543V9.0178H175.544Z" fill="black"/>
<path d="M125.085 6.94895H118.558L116.549 1L114.527 6.94895L108 6.93695L113.279 10.6185L111.257 16.5674L116.537 12.8859L121.816 16.5674L119.806 10.6185L125.085 6.94895Z" fill="#00B67A"/>
<path d="M120.258 11.9894L119.806 10.5908L116.549 12.9493L120.258 11.9894Z" fill="#005128"/>
</svg>
