<svg width="24" height="24" viewBox="0 0 24 24" fill="none" xmlns="http://www.w3.org/2000/svg">
<g clip-path="url(#clip0_1522_2545)">
<path d="M8.15313 19.3259C7.95628 19.129 7.8457 18.8619 7.8457 18.5835C7.8457 18.3051 7.95628 18.0381 8.15313 17.8412L13.3506 12.6437L8.15313 7.44619C7.96186 7.24819 7.85603 6.98287 7.85842 6.70759C7.86081 6.43231 7.97124 6.16891 8.16592 5.97427C8.3606 5.77963 8.62395 5.66911 8.89926 5.66683C9.17456 5.66443 9.4398 5.77027 9.63782 5.96143L15.5777 11.9013C15.7745 12.0982 15.8851 12.3653 15.8851 12.6437C15.8851 12.9221 15.7745 13.1891 15.5777 13.386L9.63782 19.3259C9.44093 19.5227 9.1739 19.6333 8.89548 19.6333C8.61706 19.6333 8.35003 19.5227 8.15313 19.3259Z" fill="black"/>
</g>
<defs>
<clipPath id="clip0_1522_2545">
<rect width="14.4" height="8.4" fill="white" transform="translate(7.79999 19.7998) rotate(-90)"/>
</clipPath>
</defs>
</svg>
