<svg width="119" height="14" viewBox="0 0 119 14" fill="none" xmlns="http://www.w3.org/2000/svg">
<path d="M4.8598 0.886719C3.4738 0.886719 2.3758 1.22872 1.5658 1.89472C0.755798 2.56072 0.341797 3.44272 0.341797 4.55872C0.341797 6.14272 1.3858 7.22272 3.4558 7.78072L5.3458 8.28472C6.4078 8.57272 6.8038 8.91472 6.8038 9.65272C6.8038 10.5887 5.9038 11.0747 4.5538 11.0747C3.8518 11.0747 3.0958 10.9847 2.2678 10.7867C1.4398 10.5887 0.863797 10.3727 0.539797 10.1747L0.341797 12.2987C0.773797 12.5327 1.4038 12.7307 2.2498 12.9107C3.0958 13.0907 3.9418 13.1807 4.7698 13.1807C6.1198 13.1807 7.1998 12.8387 8.0278 12.1547C8.8738 11.4707 9.2878 10.6067 9.2878 9.54472C9.2878 7.69072 8.1718 6.88072 6.1918 6.28672L4.4818 5.78272L4.3018 5.72872C3.7438 5.56672 3.6538 5.53072 3.2938 5.31472C2.9338 5.09872 2.8078 4.81072 2.8078 4.36072C2.8078 3.42472 3.6538 2.97472 5.0218 2.97472C5.6518 2.97472 6.2998 3.06472 6.9658 3.22672C7.6498 3.38872 8.1538 3.55072 8.4778 3.74872L8.6758 1.64272C7.5598 1.13872 6.2818 0.886719 4.8598 0.886719Z" fill="black"/>
<path d="M11.4907 1.06672V13.0007H13.8667V1.06672H11.4907Z" fill="black"/>
<path d="M19.1486 10.9487V1.06672H16.7726V13.0007H25.5746V10.9487H19.1486Z" fill="black"/>
<path d="M29.8269 1.06672H27.4509V13.0007H29.8269V8.19472H31.8609L35.4069 13.0007H38.3589L33.9489 7.24072L37.5849 1.06672H34.9209L32.0409 6.14272H29.8269V1.06672Z" fill="black"/>
<path d="M43.9561 13.0007H49.0861C50.9761 13.0007 52.4521 12.4787 53.5141 11.4167C54.5761 10.3547 55.1161 8.87872 55.1161 7.02472C55.1161 3.33472 52.9201 1.06672 49.0861 1.06672H43.9561V13.0007ZM46.3321 10.9487V3.11872H48.8341C51.4081 3.11872 52.6861 4.41472 52.6861 7.02472C52.6861 9.63472 51.4081 10.9487 48.8341 10.9487H46.3321Z" fill="black"/>
<path d="M68.1925 13.0007L65.0245 9.04072C66.4465 8.33872 67.3645 6.98872 67.3645 5.27872C67.3645 3.98272 66.9505 2.95672 66.1045 2.20072C65.2765 1.44472 64.2325 1.06672 62.9905 1.06672H57.4645V13.0007H59.8405V9.49072H62.5945L65.3305 13.0007H68.1925ZM62.7205 3.11872C64.0165 3.11872 64.9165 3.92872 64.9165 5.29672C64.9165 6.57472 64.0165 7.43872 62.7205 7.43872H59.8405V3.11872H62.7205Z" fill="black"/>
<path d="M72.5579 10.9487V7.92472H78.2099V5.87272H72.5579V3.11872H79.0199V1.06672H70.1819V13.0007H79.1459V10.9487H72.5579Z" fill="black"/>
<path d="M92.6364 13.0007L87.8124 1.06672H85.0944L80.2704 13.0007H82.8084L83.6904 10.6607H89.2344L90.1164 13.0007H92.6364ZM88.5504 8.77072H84.3564L86.4624 3.55072L88.5504 8.77072Z" fill="black"/>
<path d="M105.132 4.84672V13.0007H107.508V1.06672H105.456L100.956 6.41272L96.4383 1.06672H94.3863V13.0007H96.7623V4.84672L100.776 9.34672H101.154L105.132 4.84672Z" fill="black"/>
<path d="M114.368 0.886719C112.982 0.886719 111.884 1.22872 111.074 1.89472C110.264 2.56072 109.85 3.44272 109.85 4.55872C109.85 6.14272 110.894 7.22272 112.964 7.78072L114.854 8.28472C115.916 8.57272 116.312 8.91472 116.312 9.65272C116.312 10.5887 115.412 11.0747 114.062 11.0747C113.36 11.0747 112.604 10.9847 111.776 10.7867C110.948 10.5887 110.372 10.3727 110.048 10.1747L109.85 12.2987C110.282 12.5327 110.912 12.7307 111.758 12.9107C112.604 13.0907 113.45 13.1807 114.278 13.1807C115.628 13.1807 116.708 12.8387 117.536 12.1547C118.382 11.4707 118.796 10.6067 118.796 9.54472C118.796 7.69072 117.68 6.88072 115.7 6.28672L113.99 5.78272L113.81 5.72872C113.252 5.56672 113.162 5.53072 112.802 5.31472C112.442 5.09872 112.316 4.81072 112.316 4.36072C112.316 3.42472 113.162 2.97472 114.53 2.97472C115.16 2.97472 115.808 3.06472 116.474 3.22672C117.158 3.38872 117.662 3.55072 117.986 3.74872L118.184 1.64272C117.068 1.13872 115.79 0.886719 114.368 0.886719Z" fill="black"/>
</svg>
