<svg width="63" height="16" viewBox="0 0 63 16" fill="none" xmlns="http://www.w3.org/2000/svg">
<g clip-path="url(#clip0_20_460)">
<path d="M16.3961 5.37891H22.7136V6.54633H20.2295V13.109H18.8636V6.54633H16.3906V5.37891H16.3961ZM22.4437 7.5119H23.6113V8.59204H23.6334C23.6719 8.43929 23.7435 8.292 23.8482 8.15017C23.9528 8.00833 24.0795 7.87195 24.2282 7.75739C24.3769 7.63737 24.5421 7.54464 24.7239 7.46826C24.9057 7.39734 25.0929 7.35916 25.2802 7.35916C25.4234 7.35916 25.528 7.36461 25.5831 7.37007C25.6382 7.37552 25.6933 7.38643 25.7539 7.39189V8.58113C25.6657 8.56476 25.5776 8.55385 25.484 8.54294C25.3903 8.53203 25.3022 8.52658 25.2141 8.52658C25.0048 8.52658 24.8065 8.57022 24.6193 8.65205C24.432 8.73388 24.2723 8.85935 24.1346 9.01755C23.9969 9.18121 23.8867 9.3776 23.8041 9.61763C23.7215 9.85766 23.6829 10.1304 23.6829 10.4414V13.1035H22.4382V7.5119H22.4437ZM31.4764 13.109H30.2537V12.3289H30.2317C30.0775 12.6126 29.8516 12.8362 29.5487 13.0053C29.2458 13.1744 28.9374 13.2617 28.6234 13.2617C27.8799 13.2617 27.3401 13.0817 27.0096 12.7162C26.6792 12.3507 26.5139 11.7997 26.5139 11.0633V7.5119H27.7587V10.9432C27.7587 11.4342 27.8523 11.7834 28.0451 11.9852C28.2324 12.187 28.5022 12.2907 28.8437 12.2907C29.1081 12.2907 29.3229 12.2525 29.4991 12.1707C29.6754 12.0888 29.8186 11.9852 29.9232 11.8488C30.0334 11.7179 30.1105 11.5542 30.1601 11.3688C30.2096 11.1833 30.2317 10.9814 30.2317 10.7632V7.51736H31.4764V13.109ZM33.5969 11.3142C33.6355 11.6742 33.7732 11.9252 34.01 12.0725C34.2524 12.2143 34.5388 12.2907 34.8747 12.2907C34.9904 12.2907 35.1226 12.2798 35.2713 12.2634C35.42 12.2471 35.5632 12.2089 35.6899 12.1598C35.8221 12.1107 35.9267 12.0343 36.0149 11.9361C36.0975 11.8379 36.136 11.7124 36.1305 11.5542C36.125 11.396 36.0644 11.2651 35.9543 11.1669C35.8441 11.0633 35.7064 10.9869 35.5357 10.9214C35.3649 10.8614 35.1722 10.8069 34.9518 10.7632C34.7315 10.7196 34.5112 10.6705 34.2854 10.6214C34.0541 10.5723 33.8283 10.5068 33.6135 10.4359C33.3987 10.365 33.2059 10.2668 33.0351 10.1413C32.8644 10.0213 32.7267 9.86311 32.6276 9.67218C32.5229 9.48125 32.4733 9.24667 32.4733 8.963C32.4733 8.6575 32.5505 8.40656 32.6992 8.19926C32.8479 7.99197 33.0406 7.82831 33.2665 7.70284C33.4978 7.57737 33.7512 7.49008 34.0321 7.43553C34.3129 7.38643 34.5828 7.35916 34.8362 7.35916C35.1281 7.35916 35.409 7.39189 35.6734 7.4519C35.9377 7.5119 36.1801 7.6101 36.3949 7.75193C36.6097 7.88832 36.7859 8.06834 36.9291 8.28655C37.0723 8.50476 37.1605 8.77206 37.199 9.08301H35.8992C35.8386 8.78843 35.7064 8.58659 35.4916 8.48839C35.2768 8.38474 35.029 8.33565 34.7536 8.33565C34.6654 8.33565 34.5608 8.3411 34.4396 8.35747C34.3185 8.37383 34.2083 8.40111 34.0981 8.43929C33.9935 8.47748 33.9054 8.53749 33.8283 8.61386C33.7567 8.69023 33.7181 8.78843 33.7181 8.9139C33.7181 9.06665 33.7732 9.18666 33.8778 9.2794C33.9825 9.37214 34.1202 9.44851 34.2909 9.51398C34.4617 9.57398 34.6544 9.62854 34.8747 9.67218C35.0951 9.71582 35.3209 9.76492 35.5522 9.81401C35.778 9.86311 35.9983 9.92857 36.2186 9.99949C36.4389 10.0704 36.6317 10.1686 36.8025 10.2941C36.9732 10.4195 37.1109 10.5723 37.2155 10.7578C37.3202 10.9432 37.3753 11.1778 37.3753 11.4506C37.3753 11.7834 37.2982 12.0616 37.1439 12.2961C36.9897 12.5253 36.7914 12.7162 36.5491 12.858C36.3068 12.9999 36.0314 13.109 35.734 13.1744C35.4365 13.2399 35.1391 13.2726 34.8472 13.2726C34.4892 13.2726 34.1587 13.2344 33.8558 13.1526C33.5529 13.0708 33.2885 12.9508 33.0682 12.7926C32.8479 12.6289 32.6716 12.4271 32.545 12.187C32.4183 11.947 32.3522 11.6579 32.3412 11.3251H33.5969V11.3142ZM37.7057 7.5119H38.6476V5.83169H39.8923V7.5119H41.0159V8.43384H39.8923V11.4233C39.8923 11.5542 39.8978 11.6633 39.9089 11.7615C39.9199 11.8543 39.9474 11.9361 39.986 12.0016C40.0245 12.067 40.0851 12.1161 40.1677 12.1489C40.2503 12.1816 40.355 12.198 40.4982 12.198C40.5863 12.198 40.6744 12.198 40.7626 12.1925C40.8507 12.187 40.9388 12.1761 41.0269 12.1543V13.109C40.8892 13.1253 40.7515 13.1363 40.6249 13.1526C40.4927 13.169 40.3605 13.1744 40.2228 13.1744C39.8923 13.1744 39.628 13.1417 39.4297 13.0817C39.2314 13.0217 39.0717 12.929 38.9615 12.8089C38.8459 12.6889 38.7743 12.5416 38.7302 12.3616C38.6916 12.1816 38.6641 11.9743 38.6586 11.7452V8.44475H37.7168V7.5119H37.7057ZM41.8972 7.5119H43.0758V8.27018H43.0979C43.2741 7.94287 43.5165 7.71375 43.8304 7.57191C44.1443 7.43008 44.4803 7.35916 44.8493 7.35916C45.2955 7.35916 45.681 7.43553 46.0115 7.59373C46.3419 7.74648 46.6173 7.95923 46.8376 8.232C47.058 8.50476 47.2177 8.82116 47.3278 9.18121C47.438 9.54125 47.4931 9.92857 47.4931 10.3377C47.4931 10.7141 47.4435 11.0796 47.3444 11.4288C47.2452 11.7834 47.0965 12.0943 46.8982 12.3671C46.7 12.6398 46.4466 12.8526 46.1382 13.0162C45.8297 13.1799 45.4717 13.2617 45.0531 13.2617C44.8714 13.2617 44.6896 13.2454 44.5079 13.2126C44.3261 13.1799 44.1498 13.1253 43.9846 13.0544C43.8194 12.9835 43.6597 12.8908 43.522 12.7762C43.3788 12.6616 43.2631 12.5307 43.164 12.3834H43.1419V15.1765H41.8972V7.5119ZM46.2483 10.3159C46.2483 10.065 46.2153 9.81947 46.1492 9.57944C46.0831 9.33941 45.9839 9.13211 45.8518 8.94663C45.7196 8.76115 45.5543 8.61386 45.3616 8.50476C45.1633 8.39565 44.9375 8.33565 44.6841 8.33565C44.1609 8.33565 43.7643 8.51567 43.4999 8.87571C43.2356 9.23576 43.1034 9.71582 43.1034 10.3159C43.1034 10.5996 43.1364 10.8614 43.208 11.1015C43.2796 11.3415 43.3788 11.5488 43.522 11.7233C43.6597 11.8979 43.8249 12.0343 44.0177 12.1325C44.2104 12.2361 44.4363 12.2852 44.6896 12.2852C44.976 12.2852 45.2129 12.2252 45.4111 12.1107C45.6094 11.9961 45.7691 11.8434 45.8958 11.6633C46.0225 11.4779 46.1161 11.2706 46.1712 11.036C46.2208 10.8014 46.2483 10.5614 46.2483 10.3159ZM48.4459 5.37891H49.6907V6.54633H48.4459V5.37891ZM48.4459 7.5119H49.6907V13.109H48.4459V7.5119ZM50.8032 5.37891H52.048V13.109H50.8032V5.37891ZM55.8649 13.2617C55.4133 13.2617 55.0112 13.1854 54.6587 13.0381C54.3062 12.8908 54.0088 12.6835 53.7609 12.4271C53.5186 12.1652 53.3313 11.8543 53.2046 11.4942C53.078 11.1342 53.0119 10.7359 53.0119 10.305C53.0119 9.87948 53.078 9.4867 53.2046 9.12665C53.3313 8.76661 53.5186 8.45566 53.7609 8.19381C54.0033 7.93196 54.3062 7.73011 54.6587 7.58282C55.0112 7.43553 55.4133 7.35916 55.8649 7.35916C56.3165 7.35916 56.7186 7.43553 57.0711 7.58282C57.4236 7.73011 57.721 7.93741 57.9689 8.19381C58.2112 8.45566 58.3985 8.76661 58.5252 9.12665C58.6518 9.4867 58.7179 9.87948 58.7179 10.305C58.7179 10.7359 58.6518 11.1342 58.5252 11.4942C58.3985 11.8543 58.2112 12.1652 57.9689 12.4271C57.7265 12.6889 57.4236 12.8908 57.0711 13.0381C56.7186 13.1854 56.3165 13.2617 55.8649 13.2617ZM55.8649 12.2852C56.1403 12.2852 56.3826 12.2252 56.5864 12.1107C56.7902 11.9961 56.9554 11.8434 57.0876 11.6579C57.2198 11.4724 57.3134 11.2597 57.3795 11.0251C57.4401 10.7905 57.4732 10.5505 57.4732 10.305C57.4732 10.065 57.4401 9.83038 57.3795 9.59035C57.319 9.35032 57.2198 9.14302 57.0876 8.95754C56.9554 8.77206 56.7902 8.62477 56.5864 8.51021C56.3826 8.39565 56.1403 8.33565 55.8649 8.33565C55.5895 8.33565 55.3472 8.39565 55.1434 8.51021C54.9396 8.62477 54.7744 8.77752 54.6422 8.95754C54.51 9.14302 54.4164 9.35032 54.3503 9.59035C54.2897 9.83038 54.2566 10.065 54.2566 10.305C54.2566 10.5505 54.2897 10.7905 54.3503 11.0251C54.4108 11.2597 54.51 11.4724 54.6422 11.6579C54.7744 11.8434 54.9396 11.9961 55.1434 12.1107C55.3472 12.2307 55.5895 12.2852 55.8649 12.2852ZM59.0814 7.5119H60.0233V5.83169H61.268V7.5119H62.3916V8.43384H61.268V11.4233C61.268 11.5542 61.2735 11.6633 61.2846 11.7615C61.2956 11.8543 61.3231 11.9361 61.3617 12.0016C61.4002 12.067 61.4608 12.1161 61.5434 12.1489C61.626 12.1816 61.7307 12.198 61.8739 12.198C61.962 12.198 62.0501 12.198 62.1383 12.1925C62.2264 12.187 62.3145 12.1761 62.4026 12.1543V13.109C62.2649 13.1253 62.1272 13.1363 62.0006 13.1526C61.8684 13.169 61.7362 13.1744 61.5985 13.1744C61.268 13.1744 61.0037 13.1417 60.8054 13.0817C60.6071 13.0217 60.4474 12.929 60.3372 12.8089C60.2216 12.6889 60.15 12.5416 60.1059 12.3616C60.0673 12.1816 60.0398 11.9743 60.0343 11.7452V8.44475H59.0925V7.5119H59.0814Z" fill="#191919"/>
<path d="M14.9426 5.37886H9.23655L7.47406 0L5.70606 5.37886L0 5.37341L4.62103 8.7011L2.85303 14.0745L7.47406 10.7523L12.0896 14.0745L10.3271 8.7011L14.9426 5.37886Z" fill="#00B67A"/>
<path d="M10.7242 9.91757L10.3276 8.70105L7.47461 10.7522L10.7242 9.91757Z" fill="#005128"/>
</g>
<defs>
<clipPath id="clip0_20_460">
<rect width="62.3922" height="15.1765" fill="white"/>
</clipPath>
</defs>
</svg>
