<svg width="119" height="29" viewBox="0 0 119 29" fill="none" xmlns="http://www.w3.org/2000/svg">
<path d="M31.2016 9.25824H43.2027V11.4877H38.4823V24.0513H35.882V11.4877H31.1816L31.2016 9.25824ZM42.6966 13.3423H44.9128V15.4143H44.9529C45.0384 15.1088 45.1794 14.8216 45.3689 14.5668C45.571 14.2794 45.8182 14.0262 46.101 13.817C46.3838 13.5802 46.7051 13.3934 47.051 13.2646C47.3829 13.1248 47.7389 13.0509 48.0991 13.0472C48.3752 13.0472 48.5732 13.0671 48.6732 13.0671C48.7771 13.0902 48.8829 13.1036 48.9892 13.1071V15.3765C48.8198 15.3388 48.6481 15.3121 48.4752 15.2967C48.3047 15.2736 48.1331 15.2604 47.9611 15.2568C47.5725 15.2554 47.188 15.3363 46.833 15.4941C46.479 15.6584 46.1625 15.8932 45.903 16.1841C45.6265 16.5257 45.4125 16.9132 45.2709 17.3288C45.1044 17.8378 45.0239 18.3709 45.0329 18.9062V23.9954H42.6586L42.6966 13.3423ZM59.8702 24.0533H57.536V22.5536H57.496C57.1932 23.1024 56.7402 23.5539 56.1899 23.8558C55.6583 24.175 55.0502 24.3452 54.4297 24.3484C53.8734 24.4024 53.312 24.337 52.7832 24.1568C52.2543 23.9766 51.7702 23.6856 51.3634 23.3035C50.6642 22.4055 50.3254 21.2801 50.4133 20.1466V13.3404H52.7835V19.9093C52.7052 20.6202 52.9035 21.3341 53.3376 21.9035C53.5331 22.1072 53.7706 22.2663 54.0338 22.3695C54.2969 22.4728 54.5794 22.518 54.8617 22.5018C55.2895 22.5148 55.715 22.4338 56.1078 22.2644C56.4238 22.1282 56.7024 21.9183 56.9199 21.6523C57.1378 21.3799 57.2935 21.0635 57.376 20.725C57.474 20.3447 57.5205 19.9529 57.514 19.5603V13.3464H59.8882V24.0573L59.8702 24.0533ZM63.9066 20.6213C63.9173 20.9098 63.9952 21.1918 64.134 21.4451C64.2729 21.6984 64.4689 21.9162 64.7066 22.081C65.2051 22.3678 65.7735 22.5114 66.3488 22.4958C66.6006 22.4932 66.8518 22.4732 67.1008 22.436C67.3748 22.403 67.6436 22.336 67.9009 22.2366C68.1416 22.1503 68.3539 21.9999 68.515 21.8018C68.6803 21.5961 68.7585 21.3342 68.733 21.0719C68.7298 20.9309 68.6984 20.7921 68.6407 20.6633C68.583 20.5346 68.5001 20.4185 68.3969 20.3221C68.1585 20.1212 67.8881 19.9614 67.5969 19.8495C67.2364 19.7204 66.8658 19.6217 66.4888 19.5544C66.0727 19.4746 65.6587 19.3769 65.2227 19.2792C64.7866 19.1814 64.3526 19.0618 63.9366 18.9242C63.5372 18.7976 63.1625 18.6041 62.8285 18.3518C62.5005 18.1169 62.2354 17.8053 62.0564 17.4444C61.8456 17.0221 61.7439 16.5539 61.7604 16.0824C61.7377 15.5609 61.8912 15.0469 62.1964 14.6227C62.4807 14.2273 62.8532 13.903 63.2845 13.6754C63.7424 13.4288 64.2366 13.2557 64.7486 13.1629C65.2514 13.0708 65.7616 13.0247 66.2728 13.0253C66.8053 13.0226 67.3363 13.0822 67.8549 13.2028C68.3421 13.3071 68.8054 13.5012 69.221 13.7751C69.6294 14.0351 69.9717 14.386 70.2211 14.8001C70.5064 15.261 70.6822 15.7808 70.7352 16.3197H68.263C68.2341 16.0817 68.1491 15.8539 68.0149 15.6549C67.8807 15.4559 67.7011 15.2915 67.4909 15.175C67.0527 14.9721 66.5739 14.8712 66.0907 14.8799C65.9327 14.8799 65.7147 14.8998 65.4907 14.9198C65.2688 14.9515 65.0505 15.0042 64.8386 15.0774C64.6466 15.1537 64.4718 15.2676 64.3246 15.4124C64.2522 15.4888 64.1957 15.5787 64.1583 15.6769C64.1209 15.7751 64.1033 15.8797 64.1066 15.9847C64.101 16.1145 64.1246 16.2439 64.1759 16.3633C64.2271 16.4827 64.3046 16.5891 64.4026 16.6747C64.6412 16.8703 64.9119 17.0234 65.2027 17.1274C65.5631 17.2565 65.9338 17.3552 66.3108 17.4225C66.7268 17.5023 67.1608 17.6 67.5969 17.6977C68.0329 17.7955 68.447 17.9151 68.863 18.0527C69.264 18.175 69.6395 18.369 69.9711 18.625C70.2977 18.8611 70.5704 19.1636 70.7712 19.5125C70.9799 19.9213 71.0817 20.3761 71.0672 20.8346C71.086 21.4049 70.9342 21.9679 70.6312 22.452C70.3372 22.8898 69.9525 23.2596 69.5031 23.5368C69.0224 23.8161 68.5026 24.0224 67.9609 24.149C67.4085 24.2725 66.8448 24.3394 66.2788 24.3484C65.6442 24.3536 65.0118 24.2738 64.3986 24.1111C63.8608 23.97 63.3519 23.7365 62.8945 23.4211C62.4779 23.1151 62.1389 22.7163 61.9044 22.2565C61.6469 21.7414 61.5101 21.1748 61.5043 20.5993H63.9046V20.6193L63.9066 20.6213ZM71.7212 13.3423H73.5214V10.1078H75.8956V13.3224H78.0318V15.0774H75.8956V20.7987C75.8973 21.016 75.9107 21.233 75.9356 21.4488C75.9549 21.6066 76.0016 21.7598 76.0737 21.9015C76.1569 22.0235 76.2735 22.119 76.4097 22.1767C76.6126 22.2474 76.8268 22.2805 77.0417 22.2744C77.2067 22.2776 77.3716 22.271 77.5358 22.2545C77.7019 22.2375 77.8668 22.2109 78.0298 22.1747V24.0094C77.7718 24.0493 77.5158 24.0692 77.2578 24.0892C77.0019 24.1227 76.7437 24.1361 76.4857 24.1291C75.9782 24.1447 75.4713 24.0848 74.9815 23.9516C74.6478 23.8546 74.3425 23.6788 74.0915 23.4391C73.8738 23.1998 73.7234 22.9074 73.6554 22.5915C73.5745 22.2022 73.5283 21.8064 73.5174 21.409V15.0973H71.7172V13.3423H71.7212ZM79.694 13.3423H81.9302V14.8022H81.9702C82.2667 14.2121 82.7545 13.7392 83.3543 13.46C83.9612 13.1794 84.6235 13.0376 85.2925 13.0452C86.0566 13.0208 86.8158 13.1758 87.5087 13.4979C88.1208 13.7735 88.6568 14.193 89.0708 14.7204C89.5002 15.2567 89.8165 15.874 90.0009 16.5351C90.4087 17.9376 90.4225 19.4248 90.0409 20.8346C89.863 21.4771 89.5755 22.0843 89.1908 22.6294C88.8114 23.1485 88.3173 23.5736 87.7467 23.8718C87.1111 24.1987 86.4034 24.3612 85.6885 24.3445C85.3436 24.3412 84.9997 24.3085 84.6604 24.2467C84.3199 24.1877 83.9875 24.0886 83.6703 23.9516C83.356 23.8169 83.063 23.6375 82.8002 23.4191C82.5356 23.2086 82.3084 22.9551 82.1282 22.6693H82.0882V28.0158H79.714V13.3404L79.694 13.3423ZM87.9847 18.7088C87.9872 18.2362 87.9198 17.7659 87.7847 17.3129C87.67 16.8818 87.4752 16.4759 87.2106 16.1163C86.9607 15.7745 86.6444 15.4862 86.2806 15.2688C85.8875 15.0517 85.4436 14.943 84.9944 14.9537C84.5628 14.9263 84.1311 15.0055 83.7375 15.1843C83.3439 15.3631 83.0007 15.636 82.7383 15.9787C82.2038 16.7982 81.9408 17.7642 81.9862 18.7407C81.9778 19.2477 82.0452 19.7531 82.1862 20.2404C82.3047 20.6713 82.5087 21.0741 82.7862 21.4249C83.0397 21.7578 83.3642 22.0302 83.7363 22.2226C84.1337 22.4261 84.5758 22.5276 85.0225 22.5177C85.4999 22.5317 85.9721 22.4159 86.3886 22.1827C86.7519 21.9644 87.068 21.6764 87.3186 21.3352C87.5641 20.9722 87.7385 20.5662 87.8327 20.1387C87.9349 19.6682 87.9865 19.1882 87.9867 18.7068L87.9847 18.7088ZM92.1591 9.26019H94.5333V11.4897H92.1591V9.26019ZM92.1591 13.3443H94.5333V24.0553H92.1591V13.3443ZM96.6495 9.26019H99.0237V24.0553H96.6495V9.26019ZM106.264 24.3504C105.478 24.3663 104.696 24.2182 103.97 23.9157C103.33 23.6448 102.752 23.2488 102.268 22.7511C101.798 22.2313 101.441 21.6203 101.22 20.9563C100.97 20.2256 100.843 19.4588 100.844 18.6869C100.833 17.9207 100.961 17.1587 101.22 16.4374C101.446 15.7755 101.802 15.1653 102.268 14.6426C102.743 14.1346 103.324 13.737 103.97 13.478C104.699 13.1854 105.479 13.0383 106.264 13.0452C107.051 13.0288 107.832 13.1762 108.559 13.478C109.202 13.742 109.782 14.1389 110.261 14.6426C110.731 15.1623 111.087 15.7734 111.309 16.4374C111.559 17.1612 111.686 17.9214 111.685 18.6869C111.697 19.4597 111.57 20.2284 111.309 20.9563C111.075 21.6146 110.72 22.2234 110.261 22.7511C109.786 23.2592 109.205 23.6568 108.559 23.9157C107.83 24.21 107.05 24.3571 106.264 24.3484V24.3504ZM106.264 22.4759C106.741 22.4848 107.212 22.3693 107.63 22.1408C108.009 21.9274 108.334 21.6308 108.581 21.2734C108.835 20.9106 109.023 20.5054 109.135 20.0768C109.372 19.1781 109.372 18.2335 109.135 17.3348C109.027 16.9048 108.839 16.4989 108.581 16.1382C108.328 15.7911 108.004 15.5021 107.63 15.2907C107.211 15.065 106.741 14.9496 106.264 14.9557C105.788 14.9471 105.318 15.0626 104.9 15.2907C104.527 15.5028 104.203 15.7917 103.95 16.1382C103.692 16.4989 103.504 16.9048 103.396 17.3348C103.159 18.2335 103.159 19.1781 103.396 20.0768C103.504 20.5067 103.692 20.9126 103.95 21.2734C104.202 21.6263 104.526 21.922 104.9 22.1408C105.316 22.3745 105.788 22.4897 106.264 22.4739V22.4759ZM112.397 13.3423H114.197V10.1078H116.571V13.3224H118.707V15.0774H116.571V20.7987C116.573 21.016 116.586 21.233 116.611 21.4488C116.631 21.6066 116.677 21.7598 116.749 21.9015C116.833 22.0234 116.949 22.1189 117.085 22.1767C117.289 22.2476 117.504 22.2807 117.719 22.2744C117.884 22.2776 118.049 22.271 118.213 22.2545C118.38 22.2375 118.544 22.2109 118.707 22.1747V24.0094C118.449 24.0493 118.193 24.0692 117.935 24.0892C117.679 24.1226 117.421 24.136 117.163 24.1291C116.656 24.1447 116.149 24.0848 115.659 23.9516C115.325 23.8547 115.02 23.6789 114.769 23.4391C114.551 23.1998 114.401 22.9074 114.333 22.5915C114.252 22.2021 114.206 21.8064 114.195 21.409V15.0973H112.395V13.3423H112.397Z" fill="black"/>
<path d="M28.4305 9.89928H17.5696L14.2253 0L10.861 9.89928L0 9.87932L8.78479 16.0056L5.42048 25.9048L14.2053 19.7786L22.9901 25.9048L19.6458 16.0056L28.4305 9.89928Z" fill="#00B67A"/>
<path d="M20.3972 18.2867L19.6451 15.9595L14.2246 19.8842L20.3972 18.2867Z" fill="#005128"/>
</svg>
